<svg width="153" height="41" viewBox="0 0 153 41" fill="none" xmlns="http://www.w3.org/2000/svg">
<path d="M12.3751 29.743C18.7446 28.8479 62.9969 30.1061 63.0001 29.743C61.8751 34.618 60.4627 38.9553 52.1251 39.868C43.9224 40.766 1.70362 38.5832 0.405588 39.8049C0.395405 39.8259 0.385237 39.847 0.375082 39.868C0.373964 39.846 0.384243 39.825 0.405588 39.8049C2.81932 34.8256 6.03231 30.6344 12.3751 29.743Z" fill="#F60201" stroke="#F60201" stroke-width="0.75" stroke-linejoin="round"/>
<path d="M20.6251 15.3162C26.9946 14.4211 71.2469 15.6794 71.2501 15.3162C70.1251 20.1912 68.7127 24.5285 60.3751 25.4412C52.1724 26.3392 9.95362 24.1565 8.65559 25.3782C8.64541 25.3992 8.63524 25.4202 8.62508 25.4412C8.62396 25.4193 8.63424 25.3983 8.65559 25.3782C11.0693 20.3989 14.2823 16.2076 20.6251 15.3162Z" fill="#F60201" stroke="#F60201" stroke-width="0.75" stroke-linejoin="round"/>
<path d="M12.9837 10.4809C19.2691 11.4197 63.0005 10.5547 63.0005 10.9135C61.9307 6.08748 60.5723 1.79025 52.3427 0.817238C44.2462 -0.140031 2.51601 1.65573 1.24401 0.437592C1.23413 0.416751 1.22426 0.395898 1.21441 0.375029C1.21311 0.396716 1.22309 0.417561 1.24401 0.437592C3.5862 5.3777 6.72476 9.54608 12.9837 10.4809Z" fill="#F60201" stroke="#F60201" stroke-width="0.75" stroke-linejoin="round"/>
<mask id="path-4-outside-1_64_2008" maskUnits="userSpaceOnUse" x="83.25" y="9.7478" width="70" height="13" fill="black">
<rect fill="white" x="83.25" y="9.7478" width="70" height="13"/>
<path d="M84.5469 21.7478V10.8103H89.8906C91.2656 10.8103 92.2969 11.0707 92.9844 11.5916C93.6823 12.1124 94.0313 12.7999 94.0313 13.6541C94.0313 14.227 93.8906 14.727 93.6094 15.1541C93.3281 15.5707 92.9427 15.8936 92.4531 16.1228C91.9635 16.352 91.401 16.4666 90.7656 16.4666L91.0625 15.8259C91.75 15.8259 92.3594 15.9405 92.8906 16.1697C93.4219 16.3884 93.8333 16.7166 94.125 17.1541C94.4271 17.5916 94.5781 18.128 94.5781 18.7634C94.5781 19.7009 94.2083 20.4353 93.4688 20.9666C92.7292 21.4874 91.6406 21.7478 90.2031 21.7478H84.5469ZM87.0625 19.8416H90.0156C90.6719 19.8416 91.1667 19.7374 91.5 19.5291C91.8437 19.3103 92.0156 18.9666 92.0156 18.4978C92.0156 18.0395 91.8437 17.7009 91.5 17.4822C91.1667 17.253 90.6719 17.1384 90.0156 17.1384H86.875V15.2947H89.5781C90.1927 15.2947 90.6615 15.1905 90.9844 14.9822C91.3177 14.7634 91.4844 14.4353 91.4844 13.9978C91.4844 13.5707 91.3177 13.253 90.9844 13.0447C90.6615 12.8259 90.1927 12.7166 89.5781 12.7166H87.0625V19.8416ZM99.7758 21.7478V10.8103H108.041V12.8416H102.291V19.7166H108.245V21.7478H99.7758ZM102.104 17.1853V15.2166H107.37V17.1853H102.104ZM113.54 21.7478V10.8103H118.212C119.733 10.8103 120.915 11.1645 121.759 11.8728C122.602 12.5707 123.024 13.5395 123.024 14.7791C123.024 15.5916 122.831 16.2947 122.446 16.8884C122.061 17.4718 121.514 17.9197 120.805 18.2322C120.097 18.5447 119.253 18.7009 118.274 18.7009H114.946L116.071 17.5916V21.7478H113.54ZM120.493 21.7478L117.759 17.7791H120.462L123.227 21.7478H120.493ZM116.071 17.8728L114.946 16.6853H118.134C118.915 16.6853 119.498 16.5186 119.884 16.1853C120.269 15.8416 120.462 15.3728 120.462 14.7791C120.462 14.1749 120.269 13.7061 119.884 13.3728C119.498 13.0395 118.915 12.8728 118.134 12.8728H114.946L116.071 11.6697V17.8728ZM130.424 21.7478V12.8728H126.924V10.8103H136.455V12.8728H132.955V21.7478H130.424ZM139.112 21.7478L143.987 10.8103H146.487L151.377 21.7478H148.721L144.721 12.0916H145.721L141.705 21.7478H139.112ZM141.549 19.4041L142.221 17.4822H147.846L148.533 19.4041H141.549Z"/>
</mask>
<path d="M84.5469 21.7478V10.8103H89.8906C91.2656 10.8103 92.2969 11.0707 92.9844 11.5916C93.6823 12.1124 94.0313 12.7999 94.0313 13.6541C94.0313 14.227 93.8906 14.727 93.6094 15.1541C93.3281 15.5707 92.9427 15.8936 92.4531 16.1228C91.9635 16.352 91.401 16.4666 90.7656 16.4666L91.0625 15.8259C91.75 15.8259 92.3594 15.9405 92.8906 16.1697C93.4219 16.3884 93.8333 16.7166 94.125 17.1541C94.4271 17.5916 94.5781 18.128 94.5781 18.7634C94.5781 19.7009 94.2083 20.4353 93.4688 20.9666C92.7292 21.4874 91.6406 21.7478 90.2031 21.7478H84.5469ZM87.0625 19.8416H90.0156C90.6719 19.8416 91.1667 19.7374 91.5 19.5291C91.8437 19.3103 92.0156 18.9666 92.0156 18.4978C92.0156 18.0395 91.8437 17.7009 91.5 17.4822C91.1667 17.253 90.6719 17.1384 90.0156 17.1384H86.875V15.2947H89.5781C90.1927 15.2947 90.6615 15.1905 90.9844 14.9822C91.3177 14.7634 91.4844 14.4353 91.4844 13.9978C91.4844 13.5707 91.3177 13.253 90.9844 13.0447C90.6615 12.8259 90.1927 12.7166 89.5781 12.7166H87.0625V19.8416ZM99.7758 21.7478V10.8103H108.041V12.8416H102.291V19.7166H108.245V21.7478H99.7758ZM102.104 17.1853V15.2166H107.37V17.1853H102.104ZM113.54 21.7478V10.8103H118.212C119.733 10.8103 120.915 11.1645 121.759 11.8728C122.602 12.5707 123.024 13.5395 123.024 14.7791C123.024 15.5916 122.831 16.2947 122.446 16.8884C122.061 17.4718 121.514 17.9197 120.805 18.2322C120.097 18.5447 119.253 18.7009 118.274 18.7009H114.946L116.071 17.5916V21.7478H113.54ZM120.493 21.7478L117.759 17.7791H120.462L123.227 21.7478H120.493ZM116.071 17.8728L114.946 16.6853H118.134C118.915 16.6853 119.498 16.5186 119.884 16.1853C120.269 15.8416 120.462 15.3728 120.462 14.7791C120.462 14.1749 120.269 13.7061 119.884 13.3728C119.498 13.0395 118.915 12.8728 118.134 12.8728H114.946L116.071 11.6697V17.8728ZM130.424 21.7478V12.8728H126.924V10.8103H136.455V12.8728H132.955V21.7478H130.424ZM139.112 21.7478L143.987 10.8103H146.487L151.377 21.7478H148.721L144.721 12.0916H145.721L141.705 21.7478H139.112ZM141.549 19.4041L142.221 17.4822H147.846L148.533 19.4041H141.549Z" fill="#101010"/>
<path d="M84.5469 21.7478H83.9219V22.3728H84.5469V21.7478ZM84.5469 10.8103V10.1853H83.9219V10.8103H84.5469ZM92.9844 11.5916L92.607 12.0897L92.6106 12.0924L92.9844 11.5916ZM93.6094 15.1541L94.1274 15.5037L94.1314 15.4978L93.6094 15.1541ZM92.4531 16.1228L92.7181 16.6889L92.7181 16.6889L92.4531 16.1228ZM90.7656 16.4666L90.1986 16.2038L89.7871 17.0916H90.7656V16.4666ZM91.0625 15.8259V15.2009H90.6633L90.4954 15.5631L91.0625 15.8259ZM92.8906 16.1697L92.643 16.7436L92.6527 16.7476L92.8906 16.1697ZM94.125 17.1541L93.6049 17.5008L93.6107 17.5092L94.125 17.1541ZM93.4688 20.9666L93.8286 21.4776L93.8334 21.4742L93.4688 20.9666ZM87.0625 19.8416H86.4375V20.4666H87.0625V19.8416ZM91.5 19.5291L91.8313 20.0591L91.8355 20.0563L91.5 19.5291ZM91.5 17.4822L91.1459 17.9972L91.1551 18.0035L91.1645 18.0095L91.5 17.4822ZM86.875 17.1384H86.25V17.7634H86.875V17.1384ZM86.875 15.2947V14.6697H86.25V15.2947H86.875ZM90.9844 14.9822L91.3232 15.5074L91.3273 15.5047L90.9844 14.9822ZM90.9844 13.0447L90.6338 13.5621L90.6434 13.5686L90.6531 13.5747L90.9844 13.0447ZM87.0625 12.7166V12.0916H86.4375V12.7166H87.0625ZM84.5469 21.7478H85.1719V10.8103H84.5469H83.9219V21.7478H84.5469ZM84.5469 10.8103V11.4353H89.8906V10.8103V10.1853H84.5469V10.8103ZM89.8906 10.8103V11.4353C91.2045 11.4353 92.0757 11.6873 92.607 12.0897L92.9844 11.5916L93.3618 11.0934C92.518 10.4542 91.3267 10.1853 89.8906 10.1853V10.8103ZM92.9844 11.5916L92.6106 12.0924C93.154 12.498 93.4062 13.0016 93.4062 13.6541H94.0312H94.6562C94.6562 12.5981 94.2105 11.7267 93.3582 11.0907L92.9844 11.5916ZM94.0312 13.6541H93.4062C93.4062 14.12 93.2935 14.4973 93.0874 14.8103L93.6094 15.1541L94.1314 15.4978C94.4877 14.9567 94.6562 14.3339 94.6562 13.6541H94.0312ZM93.6094 15.1541L93.0913 14.8044C92.8781 15.1203 92.5834 15.3718 92.1882 15.5567L92.4531 16.1228L92.7181 16.6889C93.302 16.4155 93.7782 16.0211 94.1274 15.5037L93.6094 15.1541ZM92.4531 16.1228L92.1882 15.5567C91.7948 15.7409 91.3254 15.8416 90.7656 15.8416V16.4666V17.0916C91.4767 17.0916 92.1323 16.9631 92.7181 16.6889L92.4531 16.1228ZM90.7656 16.4666L91.3327 16.7293L91.6296 16.0887L91.0625 15.8259L90.4954 15.5631L90.1986 16.2038L90.7656 16.4666ZM91.0625 15.8259V16.4509C91.6806 16.4509 92.2033 16.5538 92.6431 16.7436L92.8906 16.1697L93.1382 15.5958C92.5155 15.3272 91.8194 15.2009 91.0625 15.2009V15.8259ZM92.8906 16.1697L92.6527 16.7476C93.0801 16.9236 93.3886 17.1762 93.605 17.5007L94.125 17.1541L94.645 16.8074C94.278 16.2569 93.7636 15.8532 93.1286 15.5918L92.8906 16.1697ZM94.125 17.1541L93.6107 17.5092C93.8276 17.8233 93.9531 18.2296 93.9531 18.7634H94.5781H95.2031C95.2031 18.0264 95.0266 17.3598 94.6393 16.7989L94.125 17.1541ZM94.5781 18.7634H93.9531C93.9531 19.5067 93.6746 20.0491 93.1041 20.4589L93.4688 20.9666L93.8334 21.4742C94.7421 20.8215 95.2031 19.8951 95.2031 18.7634H94.5781ZM93.4688 20.9666L93.1089 20.4555C92.5202 20.8701 91.5818 21.1228 90.2031 21.1228V21.7478V22.3728C91.6995 22.3728 92.9381 22.1046 93.8286 21.4776L93.4688 20.9666ZM90.2031 21.7478V21.1228H84.5469V21.7478V22.3728H90.2031V21.7478ZM87.0625 19.8416V20.4666H90.0156V19.8416V19.2166H87.0625V19.8416ZM90.0156 19.8416V20.4666C90.719 20.4666 91.3524 20.3583 91.8312 20.0591L91.5 19.5291L91.1687 18.9991C90.9809 19.1165 90.6247 19.2166 90.0156 19.2166V19.8416ZM91.5 19.5291L91.8355 20.0563C92.3893 19.704 92.6406 19.1425 92.6406 18.4978H92.0156H91.3906C91.3906 18.7906 91.2982 18.9166 91.1645 19.0018L91.5 19.5291ZM92.0156 18.4978H92.6406C92.6406 17.8573 92.3847 17.3043 91.8355 16.9549L91.5 17.4822L91.1645 18.0095C91.3028 18.0975 91.3906 18.2216 91.3906 18.4978H92.0156ZM91.5 17.4822L91.8541 16.9672C91.37 16.6343 90.7266 16.5134 90.0156 16.5134V17.1384V17.7634C90.6172 17.7634 90.9634 17.8717 91.1459 17.9972L91.5 17.4822ZM90.0156 17.1384V16.5134H86.875V17.1384V17.7634H90.0156V17.1384ZM86.875 17.1384H87.5V15.2947H86.875H86.25V17.1384H86.875ZM86.875 15.2947V15.9197H89.5781V15.2947V14.6697H86.875V15.2947ZM89.5781 15.2947V15.9197C90.2473 15.9197 90.8555 15.8091 91.3232 15.5074L90.9844 14.9822L90.6455 14.457C90.4674 14.5719 90.1382 14.6697 89.5781 14.6697V15.2947ZM90.9844 14.9822L91.3273 15.5047C91.856 15.1577 92.1094 14.6216 92.1094 13.9978H91.4844H90.8594C90.8594 14.249 90.7794 14.3691 90.6415 14.4596L90.9844 14.9822ZM91.4844 13.9978H92.1094C92.1094 13.3776 91.8499 12.8486 91.3156 12.5147L90.9844 13.0447L90.6531 13.5747C90.7855 13.6574 90.8594 13.7639 90.8594 13.9978H91.4844ZM90.9844 13.0447L91.3349 12.5272C90.8647 12.2087 90.2514 12.0916 89.5781 12.0916V12.7166V13.3416C90.134 13.3416 90.4583 13.4432 90.6338 13.5621L90.9844 13.0447ZM89.5781 12.7166V12.0916H87.0625V12.7166V13.3416H89.5781V12.7166ZM87.0625 12.7166H86.4375V19.8416H87.0625H87.6875V12.7166H87.0625ZM99.7758 21.7478H99.1508V22.3728H99.7758V21.7478ZM99.7758 10.8103V10.1853H99.1508V10.8103H99.7758ZM108.041 10.8103H108.666V10.1853H108.041V10.8103ZM108.041 12.8416V13.4666H108.666V12.8416H108.041ZM102.291 12.8416V12.2166H101.666V12.8416H102.291ZM102.291 19.7166H101.666V20.3416H102.291V19.7166ZM108.245 19.7166H108.87V19.0916H108.245V19.7166ZM108.245 21.7478V22.3728H108.87V21.7478H108.245ZM102.104 17.1853H101.479V17.8103H102.104V17.1853ZM102.104 15.2166V14.5916H101.479V15.2166H102.104ZM107.37 15.2166H107.995V14.5916H107.37V15.2166ZM107.37 17.1853V17.8103H107.995V17.1853H107.37ZM99.7758 21.7478H100.401V10.8103H99.7758H99.1508V21.7478H99.7758ZM99.7758 10.8103V11.4353H108.041V10.8103V10.1853H99.7758V10.8103ZM108.041 10.8103H107.416V12.8416H108.041H108.666V10.8103H108.041ZM108.041 12.8416V12.2166H102.291V12.8416V13.4666H108.041V12.8416ZM102.291 12.8416H101.666V19.7166H102.291H102.916V12.8416H102.291ZM102.291 19.7166V20.3416H108.245V19.7166V19.0916H102.291V19.7166ZM108.245 19.7166H107.62V21.7478H108.245H108.87V19.7166H108.245ZM108.245 21.7478V21.1228H99.7758V21.7478V22.3728H108.245V21.7478ZM102.104 17.1853H102.729V15.2166H102.104H101.479V17.1853H102.104ZM102.104 15.2166V15.8416H107.37V15.2166V14.5916H102.104V15.2166ZM107.37 15.2166H106.745V17.1853H107.37H107.995V15.2166H107.37ZM107.37 17.1853V16.5603H102.104V17.1853V17.8103H107.37V17.1853ZM113.54 21.7478H112.915V22.3728H113.54V21.7478ZM113.54 10.8103V10.1853H112.915V10.8103H113.54ZM121.759 11.8728L121.357 12.3515L121.36 12.3544L121.759 11.8728ZM122.446 16.8884L122.968 17.233L122.97 17.2287L122.446 16.8884ZM120.805 18.2322L121.058 18.804V18.804L120.805 18.2322ZM114.946 18.7009L114.507 18.2559L113.422 19.3259H114.946V18.7009ZM116.071 17.5916H116.696V16.0975L115.632 17.1465L116.071 17.5916ZM116.071 21.7478V22.3728H116.696V21.7478H116.071ZM120.493 21.7478L119.978 22.1024L120.165 22.3728H120.493V21.7478ZM117.759 17.7791V17.1541H116.569L117.244 18.1336L117.759 17.7791ZM120.462 17.7791L120.974 17.4217L120.788 17.1541H120.462V17.7791ZM123.227 21.7478V22.3728H124.425L123.74 21.3905L123.227 21.7478ZM116.071 17.8728L115.617 18.3026L116.696 19.4413V17.8728H116.071ZM114.946 16.6853V16.0603H113.493L114.492 17.1151L114.946 16.6853ZM119.884 16.1853L120.292 16.6581L120.3 16.6517L119.884 16.1853ZM114.946 12.8728L114.49 12.4459L113.506 13.4978H114.946V12.8728ZM116.071 11.6697H116.696V10.0862L115.615 11.2428L116.071 11.6697ZM113.54 21.7478H114.165V10.8103H113.54H112.915V21.7478H113.54ZM113.54 10.8103V11.4353H118.212V10.8103V10.1853H113.54V10.8103ZM118.212 10.8103V11.4353C119.641 11.4353 120.662 11.7681 121.357 12.3515L121.759 11.8728L122.16 11.3941C121.168 10.5608 119.824 10.1853 118.212 10.1853V10.8103ZM121.759 11.8728L121.36 12.3544C122.04 12.917 122.399 13.6981 122.399 14.7791H123.024H123.649C123.649 13.3808 123.164 12.2244 122.157 11.3912L121.759 11.8728ZM123.024 14.7791H122.399C122.399 15.4891 122.232 16.07 121.922 16.5481L122.446 16.8884L122.97 17.2287C123.431 16.5193 123.649 15.694 123.649 14.7791H123.024ZM122.446 16.8884L121.925 16.5439C121.612 17.0167 121.164 17.3909 120.553 17.6604L120.805 18.2322L121.058 18.804C121.864 18.4485 122.509 17.9269 122.968 17.233L122.446 16.8884ZM120.805 18.2322L120.553 17.6604C119.942 17.9298 119.189 18.0759 118.274 18.0759V18.7009V19.3259C119.318 19.3259 120.252 19.1595 121.058 18.804L120.805 18.2322ZM118.274 18.7009V18.0759H114.946V18.7009V19.3259H118.274V18.7009ZM114.946 18.7009L115.385 19.1459L116.51 18.0366L116.071 17.5916L115.632 17.1465L114.507 18.2559L114.946 18.7009ZM116.071 17.5916H115.446V21.7478H116.071H116.696V17.5916H116.071ZM116.071 21.7478V21.1228H113.54V21.7478V22.3728H116.071V21.7478ZM120.493 21.7478L121.008 21.3932L118.273 17.4245L117.759 17.7791L117.244 18.1336L119.978 22.1024L120.493 21.7478ZM117.759 17.7791V18.4041H120.462V17.7791V17.1541H117.759V17.7791ZM120.462 17.7791L119.949 18.1364L122.715 22.1051L123.227 21.7478L123.74 21.3905L120.974 17.4217L120.462 17.7791ZM123.227 21.7478V21.1228H120.493V21.7478V22.3728H123.227V21.7478ZM116.071 17.8728L116.525 17.443L115.4 16.2555L114.946 16.6853L114.492 17.1151L115.617 18.3026L116.071 17.8728ZM114.946 16.6853V17.3103H118.134V16.6853V16.0603H114.946V16.6853ZM118.134 16.6853V17.3103C118.988 17.3103 119.746 17.1303 120.292 16.658L119.884 16.1853L119.475 15.7126C119.25 15.907 118.841 16.0603 118.134 16.0603V16.6853ZM119.884 16.1853L120.3 16.6517C120.838 16.1711 121.087 15.5215 121.087 14.7791H120.462H119.837C119.837 15.2241 119.699 15.512 119.468 15.7189L119.884 16.1853ZM120.462 14.7791H121.087C121.087 14.0305 120.841 13.3744 120.292 12.9001L119.884 13.3728L119.475 13.8455C119.697 14.0379 119.837 14.3193 119.837 14.7791H120.462ZM119.884 13.3728L120.292 12.9001C119.746 12.4278 118.988 12.2478 118.134 12.2478V12.8728V13.4978C118.841 13.4978 119.25 13.6511 119.475 13.8455L119.884 13.3728ZM118.134 12.8728V12.2478H114.946V12.8728V13.4978H118.134V12.8728ZM114.946 12.8728L115.403 13.2997L116.528 12.0965L116.071 11.6697L115.615 11.2428L114.49 12.4459L114.946 12.8728ZM116.071 11.6697H115.446V17.8728H116.071H116.696V11.6697H116.071ZM130.424 21.7478H129.799V22.3728H130.424V21.7478ZM130.424 12.8728H131.049V12.2478H130.424V12.8728ZM126.924 12.8728H126.299V13.4978H126.924V12.8728ZM126.924 10.8103V10.1853H126.299V10.8103H126.924ZM136.455 10.8103H137.08V10.1853H136.455V10.8103ZM136.455 12.8728V13.4978H137.08V12.8728H136.455ZM132.955 12.8728V12.2478H132.33V12.8728H132.955ZM132.955 21.7478V22.3728H133.58V21.7478H132.955ZM130.424 21.7478H131.049V12.8728H130.424H129.799V21.7478H130.424ZM130.424 12.8728V12.2478H126.924V12.8728V13.4978H130.424V12.8728ZM126.924 12.8728H127.549V10.8103H126.924H126.299V12.8728H126.924ZM126.924 10.8103V11.4353H136.455V10.8103V10.1853H126.924V10.8103ZM136.455 10.8103H135.83V12.8728H136.455H137.08V10.8103H136.455ZM136.455 12.8728V12.2478H132.955V12.8728V13.4978H136.455V12.8728ZM132.955 12.8728H132.33V21.7478H132.955H133.58V12.8728H132.955ZM132.955 21.7478V21.1228H130.424V21.7478V22.3728H132.955V21.7478ZM139.112 21.7478L138.541 21.4934L138.149 22.3728H139.112V21.7478ZM143.987 10.8103V10.1853H143.581L143.416 10.5559L143.987 10.8103ZM146.487 10.8103L147.057 10.5552L146.892 10.1853H146.487V10.8103ZM151.377 21.7478V22.3728H152.341L151.948 21.4927L151.377 21.7478ZM148.721 21.7478L148.144 21.987L148.303 22.3728H148.721V21.7478ZM144.721 12.0916V11.4666H143.786L144.144 12.3307L144.721 12.0916ZM145.721 12.0916L146.298 12.3315L146.658 11.4666H145.721V12.0916ZM141.705 21.7478V22.3728H142.122L142.282 21.9878L141.705 21.7478ZM141.549 19.4041L140.959 19.1978L140.668 20.0291H141.549V19.4041ZM142.221 17.4822V16.8572H141.777L141.631 17.2759L142.221 17.4822ZM147.846 17.4822L148.434 17.2717L148.286 16.8572H147.846V17.4822ZM148.533 19.4041V20.0291H149.421L149.122 19.1935L148.533 19.4041ZM139.112 21.7478L139.682 22.0022L144.557 11.0647L143.987 10.8103L143.416 10.5559L138.541 21.4934L139.112 21.7478ZM143.987 10.8103V11.4353H146.487V10.8103V10.1853H143.987V10.8103ZM146.487 10.8103L145.916 11.0654L150.807 22.0029L151.377 21.7478L151.948 21.4927L147.057 10.5552L146.487 10.8103ZM151.377 21.7478V21.1228H148.721V21.7478V22.3728H151.377V21.7478ZM148.721 21.7478L149.298 21.5086L145.298 11.8524L144.721 12.0916L144.144 12.3307L148.144 21.987L148.721 21.7478ZM144.721 12.0916V12.7166H145.721V12.0916V11.4666H144.721V12.0916ZM145.721 12.0916L145.144 11.8516L141.128 21.5078L141.705 21.7478L142.282 21.9878L146.298 12.3315L145.721 12.0916ZM141.705 21.7478V21.1228H139.112V21.7478V22.3728H141.705V21.7478ZM141.549 19.4041L142.139 19.6103L142.811 17.6884L142.221 17.4822L141.631 17.2759L140.959 19.1978L141.549 19.4041ZM142.221 17.4822V18.1072H147.846V17.4822V16.8572H142.221V17.4822ZM147.846 17.4822L147.257 17.6927L147.945 19.6146L148.533 19.4041L149.122 19.1935L148.434 17.2717L147.846 17.4822ZM148.533 19.4041V18.7791H141.549V19.4041V20.0291H148.533V19.4041Z" fill="#101010" mask="url(#path-4-outside-1_64_2008)"/>
<mask id="path-6-outside-2_64_2008" maskUnits="userSpaceOnUse" x="96.75" y="26.4978" width="42" height="6" fill="black">
<rect fill="white" x="96.75" y="26.4978" width="42" height="6"/>
<path d="M99.4355 31.5616C99.0868 31.5616 98.7657 31.5063 98.4723 31.3957C98.1831 31.2809 97.9301 31.1214 97.7132 30.9173C97.4963 30.7089 97.3284 30.4644 97.2093 30.1838C97.0902 29.9031 97.0307 29.5969 97.0307 29.2652C97.0307 28.9335 97.0902 28.6273 97.2093 28.3466C97.3284 28.066 97.4963 27.8236 97.7132 27.6195C97.9343 27.4111 98.1916 27.2516 98.4851 27.141C98.7785 27.0262 99.0995 26.9688 99.4483 26.9688C99.8267 26.9688 100.167 27.0305 100.469 27.1538C100.775 27.2771 101.032 27.4579 101.241 27.696L100.718 28.2063C100.543 28.032 100.354 27.9044 100.15 27.8236C99.9501 27.7385 99.7289 27.696 99.4865 27.696C99.2526 27.696 99.0358 27.7343 98.8359 27.8108C98.636 27.8874 98.4638 27.9958 98.3192 28.1361C98.1746 28.2765 98.0619 28.4423 97.9811 28.6337C97.9046 28.8251 97.8663 29.0356 97.8663 29.2652C97.8663 29.4906 97.9046 29.699 97.9811 29.8903C98.0619 30.0817 98.1746 30.2497 98.3192 30.3943C98.4638 30.5346 98.6339 30.643 98.8295 30.7196C99.0251 30.7961 99.242 30.8344 99.4802 30.8344C99.7013 30.8344 99.9139 30.8004 100.118 30.7323C100.326 30.66 100.524 30.541 100.711 30.3751L101.183 30.9939C100.949 31.181 100.677 31.3234 100.367 31.4213C100.061 31.5148 99.7502 31.5616 99.4355 31.5616ZM101.183 30.9939L100.399 30.8854V29.2142H101.183V30.9939ZM106.615 31.4978V27.0326H108.445C109.041 27.0326 109.506 27.1729 109.842 27.4536C110.183 27.7343 110.353 28.1234 110.353 28.6209C110.353 28.9484 110.276 29.2312 110.123 29.4693C109.97 29.7032 109.751 29.8839 109.466 30.0115C109.185 30.1349 108.847 30.1965 108.452 30.1965H107.074L107.444 29.8202V31.4978H106.615ZM109.536 31.4978L108.407 29.8776H109.294L110.429 31.4978H109.536ZM107.444 29.9095L107.074 29.514H108.414C108.779 29.514 109.054 29.4353 109.236 29.278C109.423 29.1206 109.517 28.9016 109.517 28.6209C109.517 28.336 109.423 28.117 109.236 27.9639C109.054 27.8108 108.779 27.7343 108.414 27.7343H107.074L107.444 27.326V29.9095ZM117.71 31.5616C117.362 31.5616 117.041 31.5042 116.747 31.3894C116.454 31.2745 116.199 31.1151 115.982 30.9109C115.765 30.7026 115.597 30.4602 115.478 30.1838C115.359 29.9031 115.299 29.5969 115.299 29.2652C115.299 28.9335 115.359 28.6294 115.478 28.353C115.597 28.0724 115.765 27.83 115.982 27.6258C116.199 27.4175 116.454 27.2559 116.747 27.141C117.041 27.0262 117.36 26.9688 117.704 26.9688C118.053 26.9688 118.372 27.0262 118.661 27.141C118.954 27.2559 119.209 27.4175 119.426 27.6258C119.643 27.83 119.811 28.0724 119.93 28.353C120.049 28.6294 120.109 28.9335 120.109 29.2652C120.109 29.5969 120.049 29.9031 119.93 30.1838C119.811 30.4644 119.643 30.7068 119.426 30.9109C119.209 31.1151 118.954 31.2745 118.661 31.3894C118.372 31.5042 118.055 31.5616 117.71 31.5616ZM117.704 30.8344C117.929 30.8344 118.138 30.7961 118.329 30.7196C118.52 30.643 118.686 30.5346 118.827 30.3943C118.967 30.2497 119.075 30.0838 119.152 29.8967C119.233 29.7053 119.273 29.4948 119.273 29.2652C119.273 29.0356 119.233 28.8272 119.152 28.6401C119.075 28.4487 118.967 28.2829 118.827 28.1425C118.686 27.9979 118.52 27.8874 118.329 27.8108C118.138 27.7343 117.929 27.696 117.704 27.696C117.479 27.696 117.27 27.7343 117.079 27.8108C116.892 27.8874 116.726 27.9979 116.581 28.1425C116.441 28.2829 116.33 28.4487 116.25 28.6401C116.173 28.8272 116.135 29.0356 116.135 29.2652C116.135 29.4906 116.173 29.699 116.25 29.8903C116.33 30.0817 116.441 30.2497 116.581 30.3943C116.722 30.5346 116.887 30.643 117.079 30.7196C117.27 30.7961 117.479 30.8344 117.704 30.8344ZM127.245 31.5616C126.633 31.5616 126.153 31.3894 125.804 31.0449C125.459 30.7004 125.287 30.2029 125.287 29.5522V27.0326H126.116V29.5204C126.116 29.9796 126.214 30.3135 126.41 30.5218C126.61 30.7302 126.89 30.8344 127.252 30.8344C127.613 30.8344 127.892 30.7302 128.087 30.5218C128.283 30.3135 128.381 29.9796 128.381 29.5204V27.0326H129.197V29.5522C129.197 30.2029 129.023 30.7004 128.674 31.0449C128.33 31.3894 127.854 31.5616 127.245 31.5616ZM134.696 31.4978V27.0326H136.533C136.929 27.0326 137.267 27.0964 137.548 27.224C137.833 27.3515 138.052 27.5344 138.205 27.7725C138.358 28.0107 138.434 28.2935 138.434 28.6209C138.434 28.9484 138.358 29.2312 138.205 29.4693C138.052 29.7075 137.833 29.8903 137.548 30.0179C137.267 30.1455 136.929 30.2093 136.533 30.2093H135.156L135.526 29.8202V31.4978H134.696ZM135.526 29.9095L135.156 29.5076H136.495C136.861 29.5076 137.135 29.431 137.318 29.278C137.505 29.1206 137.599 28.9016 137.599 28.6209C137.599 28.336 137.505 28.117 137.318 27.9639C137.135 27.8108 136.861 27.7343 136.495 27.7343H135.156L135.526 27.326V29.9095Z"/>
</mask>
<path d="M99.4355 31.5616C99.0868 31.5616 98.7657 31.5063 98.4723 31.3957C98.1831 31.2809 97.9301 31.1214 97.7132 30.9173C97.4963 30.7089 97.3284 30.4644 97.2093 30.1838C97.0902 29.9031 97.0307 29.5969 97.0307 29.2652C97.0307 28.9335 97.0902 28.6273 97.2093 28.3466C97.3284 28.066 97.4963 27.8236 97.7132 27.6195C97.9343 27.4111 98.1916 27.2516 98.4851 27.141C98.7785 27.0262 99.0995 26.9688 99.4483 26.9688C99.8267 26.9688 100.167 27.0305 100.469 27.1538C100.775 27.2771 101.032 27.4579 101.241 27.696L100.718 28.2063C100.543 28.032 100.354 27.9044 100.15 27.8236C99.9501 27.7385 99.7289 27.696 99.4865 27.696C99.2526 27.696 99.0358 27.7343 98.8359 27.8108C98.636 27.8874 98.4638 27.9958 98.3192 28.1361C98.1746 28.2765 98.0619 28.4423 97.9811 28.6337C97.9046 28.8251 97.8663 29.0356 97.8663 29.2652C97.8663 29.4906 97.9046 29.699 97.9811 29.8903C98.0619 30.0817 98.1746 30.2497 98.3192 30.3943C98.4638 30.5346 98.6339 30.643 98.8295 30.7196C99.0251 30.7961 99.242 30.8344 99.4802 30.8344C99.7013 30.8344 99.9139 30.8004 100.118 30.7323C100.326 30.66 100.524 30.541 100.711 30.3751L101.183 30.9939C100.949 31.181 100.677 31.3234 100.367 31.4213C100.061 31.5148 99.7502 31.5616 99.4355 31.5616ZM101.183 30.9939L100.399 30.8854V29.2142H101.183V30.9939ZM106.615 31.4978V27.0326H108.445C109.041 27.0326 109.506 27.1729 109.842 27.4536C110.183 27.7343 110.353 28.1234 110.353 28.6209C110.353 28.9484 110.276 29.2312 110.123 29.4693C109.97 29.7032 109.751 29.8839 109.466 30.0115C109.185 30.1349 108.847 30.1965 108.452 30.1965H107.074L107.444 29.8202V31.4978H106.615ZM109.536 31.4978L108.407 29.8776H109.294L110.429 31.4978H109.536ZM107.444 29.9095L107.074 29.514H108.414C108.779 29.514 109.054 29.4353 109.236 29.278C109.423 29.1206 109.517 28.9016 109.517 28.6209C109.517 28.336 109.423 28.117 109.236 27.9639C109.054 27.8108 108.779 27.7343 108.414 27.7343H107.074L107.444 27.326V29.9095ZM117.71 31.5616C117.362 31.5616 117.041 31.5042 116.747 31.3894C116.454 31.2745 116.199 31.1151 115.982 30.9109C115.765 30.7026 115.597 30.4602 115.478 30.1838C115.359 29.9031 115.299 29.5969 115.299 29.2652C115.299 28.9335 115.359 28.6294 115.478 28.353C115.597 28.0724 115.765 27.83 115.982 27.6258C116.199 27.4175 116.454 27.2559 116.747 27.141C117.041 27.0262 117.36 26.9688 117.704 26.9688C118.053 26.9688 118.372 27.0262 118.661 27.141C118.954 27.2559 119.209 27.4175 119.426 27.6258C119.643 27.83 119.811 28.0724 119.93 28.353C120.049 28.6294 120.109 28.9335 120.109 29.2652C120.109 29.5969 120.049 29.9031 119.93 30.1838C119.811 30.4644 119.643 30.7068 119.426 30.9109C119.209 31.1151 118.954 31.2745 118.661 31.3894C118.372 31.5042 118.055 31.5616 117.71 31.5616ZM117.704 30.8344C117.929 30.8344 118.138 30.7961 118.329 30.7196C118.52 30.643 118.686 30.5346 118.827 30.3943C118.967 30.2497 119.075 30.0838 119.152 29.8967C119.233 29.7053 119.273 29.4948 119.273 29.2652C119.273 29.0356 119.233 28.8272 119.152 28.6401C119.075 28.4487 118.967 28.2829 118.827 28.1425C118.686 27.9979 118.52 27.8874 118.329 27.8108C118.138 27.7343 117.929 27.696 117.704 27.696C117.479 27.696 117.27 27.7343 117.079 27.8108C116.892 27.8874 116.726 27.9979 116.581 28.1425C116.441 28.2829 116.33 28.4487 116.25 28.6401C116.173 28.8272 116.135 29.0356 116.135 29.2652C116.135 29.4906 116.173 29.699 116.25 29.8903C116.33 30.0817 116.441 30.2497 116.581 30.3943C116.722 30.5346 116.887 30.643 117.079 30.7196C117.27 30.7961 117.479 30.8344 117.704 30.8344ZM127.245 31.5616C126.633 31.5616 126.153 31.3894 125.804 31.0449C125.459 30.7004 125.287 30.2029 125.287 29.5522V27.0326H126.116V29.5204C126.116 29.9796 126.214 30.3135 126.41 30.5218C126.61 30.7302 126.89 30.8344 127.252 30.8344C127.613 30.8344 127.892 30.7302 128.087 30.5218C128.283 30.3135 128.381 29.9796 128.381 29.5204V27.0326H129.197V29.5522C129.197 30.2029 129.023 30.7004 128.674 31.0449C128.33 31.3894 127.854 31.5616 127.245 31.5616ZM134.696 31.4978V27.0326H136.533C136.929 27.0326 137.267 27.0964 137.548 27.224C137.833 27.3515 138.052 27.5344 138.205 27.7725C138.358 28.0107 138.434 28.2935 138.434 28.6209C138.434 28.9484 138.358 29.2312 138.205 29.4693C138.052 29.7075 137.833 29.8903 137.548 30.0179C137.267 30.1455 136.929 30.2093 136.533 30.2093H135.156L135.526 29.8202V31.4978H134.696ZM135.526 29.9095L135.156 29.5076H136.495C136.861 29.5076 137.135 29.431 137.318 29.278C137.505 29.1206 137.599 28.9016 137.599 28.6209C137.599 28.336 137.505 28.117 137.318 27.9639C137.135 27.8108 136.861 27.7343 136.495 27.7343H135.156L135.526 27.326V29.9095Z" fill="#101010"/>
<path d="M98.4723 31.3957L98.3781 31.6329L98.3823 31.6345L98.4723 31.3957ZM97.7132 30.9173L97.5364 31.1013L97.5383 31.1031L97.7132 30.9173ZM97.2093 30.1838L97.4442 30.0841V30.0841L97.2093 30.1838ZM97.2093 28.3466L97.4442 28.4463V28.4463L97.2093 28.3466ZM97.7132 27.6195L97.8881 27.8053L97.8882 27.8052L97.7132 27.6195ZM98.4851 27.141L98.575 27.3798L98.578 27.3786L98.4851 27.141ZM100.469 27.1538L100.372 27.39L100.374 27.3905L100.469 27.1538ZM101.241 27.696L101.419 27.8786L101.592 27.7099L101.433 27.528L101.241 27.696ZM100.718 28.2063L100.537 28.3867L100.715 28.5649L100.896 28.3889L100.718 28.2063ZM100.15 27.8236L100.05 28.0584L100.056 28.0608L100.15 27.8236ZM98.8359 27.8108L98.9271 28.0491V28.0491L98.8359 27.8108ZM97.9811 28.6337L97.746 28.5344L97.7442 28.5389L97.9811 28.6337ZM97.9811 29.8903L97.7442 29.9851L97.7461 29.9896L97.9811 29.8903ZM98.3192 30.3943L98.1388 30.5747L98.1415 30.5774L98.3192 30.3943ZM98.8295 30.7196L98.9225 30.482V30.482L98.8295 30.7196ZM100.118 30.7323L100.199 30.9744L100.202 30.9734L100.118 30.7323ZM100.711 30.3751L100.914 30.2204L100.748 30.002L100.542 30.1842L100.711 30.3751ZM101.183 30.9939L101.343 31.1931L101.537 31.0374L101.386 30.8391L101.183 30.9939ZM100.367 31.4213L100.441 31.6653L100.443 31.6646L100.367 31.4213ZM101.183 30.9939L101.148 31.2466L101.438 31.2867V30.9939H101.183ZM100.399 30.8854H100.144V31.1077L100.364 31.1382L100.399 30.8854ZM100.399 29.2142V28.959H100.144V29.2142H100.399ZM101.183 29.2142H101.438V28.959H101.183V29.2142ZM99.4355 31.5616V31.3064C99.1141 31.3064 98.8239 31.2556 98.5623 31.157L98.4723 31.3957L98.3823 31.6345C98.7076 31.7571 99.0595 31.8167 99.4355 31.8167V31.5616ZM98.4723 31.3957L98.5665 31.1586C98.3058 31.0551 98.0805 30.9126 97.8881 30.7315L97.7132 30.9173L97.5383 31.1031C97.7797 31.3303 98.0604 31.5067 98.3781 31.6329L98.4723 31.3957ZM97.7132 30.9173L97.89 30.7333C97.6983 30.5492 97.55 30.3335 97.4442 30.0841L97.2093 30.1838L96.9744 30.2834C97.1067 30.5954 97.2943 30.8687 97.5364 31.1013L97.7132 30.9173ZM97.2093 30.1838L97.4442 30.0841C97.3396 29.8376 97.2858 29.5657 97.2858 29.2652H97.0307H96.7755C96.7755 29.6281 96.8408 29.9685 96.9744 30.2834L97.2093 30.1838ZM97.0307 29.2652H97.2858C97.2858 28.9647 97.3396 28.6928 97.4442 28.4463L97.2093 28.3466L96.9744 28.247C96.8408 28.5619 96.7755 28.9023 96.7755 29.2652H97.0307ZM97.2093 28.3466L97.4442 28.4463C97.5498 28.1974 97.6976 27.9845 97.8881 27.8053L97.7132 27.6195L97.5383 27.4336C97.2951 27.6626 97.1069 27.9345 96.9744 28.247L97.2093 28.3466ZM97.7132 27.6195L97.8882 27.8052C98.084 27.6207 98.3121 27.4789 98.575 27.3798L98.4851 27.141L98.3951 26.9023C98.0711 27.0243 97.7847 27.2015 97.5382 27.4338L97.7132 27.6195ZM98.4851 27.141L98.578 27.3786C98.8388 27.2766 99.128 27.224 99.4483 27.224V26.9688V26.7137C99.0711 26.7137 98.7181 26.7758 98.3921 26.9034L98.4851 27.141ZM99.4483 26.9688V27.224C99.7989 27.224 100.106 27.281 100.372 27.39L100.469 27.1538L100.565 26.9176C100.228 26.7799 99.8546 26.7137 99.4483 26.7137V26.9688ZM100.469 27.1538L100.374 27.3905C100.644 27.4995 100.868 27.6574 101.049 27.864L101.241 27.696L101.433 27.528C101.197 27.2584 100.906 27.0547 100.564 26.9171L100.469 27.1538ZM101.241 27.696L101.063 27.5134L100.539 28.0237L100.718 28.2063L100.896 28.3889L101.419 27.8786L101.241 27.696ZM100.718 28.2063L100.898 28.0259C100.702 27.8299 100.484 27.6815 100.244 27.5863L100.15 27.8236L100.056 28.0608C100.224 28.1273 100.384 28.234 100.537 28.3867L100.718 28.2063ZM100.15 27.8236L100.25 27.5888C100.015 27.4888 99.7593 27.4408 99.4865 27.4408V27.696V27.9512C99.6986 27.9512 99.8852 27.9882 100.05 28.0584L100.15 27.8236ZM99.4865 27.696V27.4408C99.2243 27.4408 98.9762 27.4838 98.7446 27.5725L98.8359 27.8108L98.9271 28.0491C99.0953 27.9847 99.2809 27.9512 99.4865 27.9512V27.696ZM98.8359 27.8108L98.7446 27.5725C98.5145 27.6607 98.3124 27.7872 98.1415 27.953L98.3192 28.1361L98.4969 28.3192C98.6152 28.2044 98.7575 28.1141 98.9271 28.0491L98.8359 27.8108ZM98.3192 28.1361L98.1415 27.953C97.9716 28.1179 97.8397 28.3126 97.7461 28.5344L97.9811 28.6337L98.2162 28.7329C98.2841 28.5721 98.3776 28.435 98.4969 28.3192L98.3192 28.1361ZM97.9811 28.6337L97.7442 28.5389C97.6543 28.7637 97.6111 29.0068 97.6111 29.2652H97.8663H98.1215C98.1215 29.0643 98.1548 28.8864 98.218 28.7285L97.9811 28.6337ZM97.8663 29.2652H97.6111C97.6111 29.52 97.6545 29.7609 97.7442 29.9851L97.9811 29.8903L98.218 29.7956C98.1546 29.637 98.1215 29.4612 98.1215 29.2652H97.8663ZM97.9811 29.8903L97.7461 29.9896C97.8395 30.2108 97.9705 30.4064 98.1388 30.5747L98.3192 30.3943L98.4996 30.2138C98.3787 30.0929 98.2844 29.9526 98.2162 29.7911L97.9811 29.8903ZM98.3192 30.3943L98.1415 30.5774C98.3115 30.7423 98.5107 30.8688 98.7365 30.9572L98.8295 30.7196L98.9225 30.482C98.7571 30.4172 98.6161 30.3269 98.4969 30.2112L98.3192 30.3943ZM98.8295 30.7196L98.7365 30.9572C98.9655 31.0468 99.2144 31.0896 99.4802 31.0896V30.8344V30.5792C99.2696 30.5792 99.0848 30.5455 98.9225 30.482L98.8295 30.7196ZM99.4802 30.8344V31.0896C99.7279 31.0896 99.9679 31.0514 100.199 30.9744L100.118 30.7323L100.037 30.4903C99.86 30.5494 99.6746 30.5792 99.4802 30.5792V30.8344ZM100.118 30.7323L100.202 30.9734C100.446 30.8888 100.672 30.7511 100.881 30.5661L100.711 30.3751L100.542 30.1842C100.377 30.3308 100.207 30.4313 100.034 30.4913L100.118 30.7323ZM100.711 30.3751L100.508 30.5299L100.98 31.1486L101.183 30.9939L101.386 30.8391L100.914 30.2204L100.711 30.3751ZM101.183 30.9939L101.024 30.7946C100.817 30.9604 100.573 31.0887 100.29 31.1779L100.367 31.4213L100.443 31.6646C100.781 31.5582 101.082 31.4016 101.343 31.1931L101.183 30.9939ZM100.367 31.4213L100.292 31.1772C100.01 31.2635 99.7245 31.3064 99.4355 31.3064V31.5616V31.8167C99.7759 31.8167 100.111 31.7661 100.441 31.6653L100.367 31.4213ZM101.183 30.9939L101.218 30.7411L100.434 30.6327L100.399 30.8854L100.364 31.1382L101.148 31.2466L101.183 30.9939ZM100.399 30.8854H100.654V29.2142H100.399H100.144V30.8854H100.399ZM100.399 29.2142V29.4693H101.183V29.2142V28.959H100.399V29.2142ZM101.183 29.2142H100.928V30.9939H101.183H101.438V29.2142H101.183ZM106.615 31.4978H106.36V31.753H106.615V31.4978ZM106.615 27.0326V26.7774H106.36V27.0326H106.615ZM109.842 27.4536L109.679 27.6494L109.68 27.6504L109.842 27.4536ZM110.123 29.4693L110.337 29.6091L110.338 29.6073L110.123 29.4693ZM109.466 30.0115L109.569 30.2451L109.57 30.2444L109.466 30.0115ZM107.074 30.1965L106.892 30.0176L106.465 30.4517H107.074V30.1965ZM107.444 29.8202H107.699V29.1966L107.262 29.6413L107.444 29.8202ZM107.444 31.4978V31.753H107.699V31.4978H107.444ZM109.536 31.4978L109.327 31.6437L109.403 31.753H109.536V31.4978ZM108.407 29.8776V29.6224H107.918L108.198 30.0234L108.407 29.8776ZM109.294 29.8776L109.503 29.7311L109.427 29.6224H109.294V29.8776ZM110.429 31.4978V31.753H110.92L110.638 31.3514L110.429 31.4978ZM107.444 29.9095L107.258 30.0838L107.699 30.5557V29.9095H107.444ZM107.074 29.514V29.2588H106.486L106.888 29.6883L107.074 29.514ZM109.236 29.278L109.072 29.0827L109.07 29.0845L109.236 29.278ZM109.236 27.9639L109.073 28.1596L109.075 28.1614L109.236 27.9639ZM107.074 27.7343L106.885 27.5629L106.498 27.9894H107.074V27.7343ZM107.444 27.326H107.699V26.6645L107.255 27.1547L107.444 27.326ZM106.615 31.4978H106.87V27.0326H106.615H106.36V31.4978H106.615ZM106.615 27.0326V27.2878H108.445V27.0326V26.7774H106.615V27.0326ZM108.445 27.0326V27.2878C109.002 27.2878 109.403 27.4189 109.679 27.6494L109.842 27.4536L110.006 27.2578C109.61 26.9269 109.079 26.7774 108.445 26.7774V27.0326ZM109.842 27.4536L109.68 27.6504C109.953 27.876 110.098 28.1886 110.098 28.6209H110.353H110.608C110.608 28.0582 110.412 27.5925 110.005 27.2568L109.842 27.4536ZM110.353 28.6209H110.098C110.098 28.9073 110.031 29.1405 109.908 29.3313L110.123 29.4693L110.338 29.6073C110.521 29.3219 110.608 28.9895 110.608 28.6209H110.353ZM110.123 29.4693L109.91 29.3296C109.786 29.518 109.607 29.6686 109.362 29.7787L109.466 30.0115L109.57 30.2444C109.894 30.0993 110.154 29.8885 110.337 29.6091L110.123 29.4693ZM109.466 30.0115L109.363 29.7779C109.123 29.8836 108.822 29.9414 108.452 29.9414V30.1965V30.4517C108.873 30.4517 109.248 30.3861 109.569 30.2451L109.466 30.0115ZM108.452 30.1965V29.9414H107.074V30.1965V30.4517H108.452V30.1965ZM107.074 30.1965L107.256 30.3754L107.626 29.999L107.444 29.8202L107.262 29.6413L106.892 30.0176L107.074 30.1965ZM107.444 29.8202H107.189V31.4978H107.444H107.699V29.8202H107.444ZM107.444 31.4978V31.2426H106.615V31.4978V31.753H107.444V31.4978ZM109.536 31.4978L109.746 31.3519L108.616 29.7317L108.407 29.8776L108.198 30.0234L109.327 31.6437L109.536 31.4978ZM108.407 29.8776V30.1327H109.294V29.8776V29.6224H108.407V29.8776ZM109.294 29.8776L109.085 30.024L110.22 31.6442L110.429 31.4978L110.638 31.3514L109.503 29.7311L109.294 29.8776ZM110.429 31.4978V31.2426H109.536V31.4978V31.753H110.429V31.4978ZM107.444 29.9095L107.63 29.7352L107.26 29.3397L107.074 29.514L106.888 29.6883L107.258 30.0838L107.444 29.9095ZM107.074 29.514V29.7691H108.414V29.514V29.2588H107.074V29.514ZM108.414 29.514V29.7691C108.81 29.7691 109.155 29.6847 109.403 29.4714L109.236 29.278L109.07 29.0845C108.952 29.1859 108.749 29.2588 108.414 29.2588V29.514ZM109.236 29.278L109.401 29.4732C109.654 29.2599 109.772 28.9645 109.772 28.6209H109.517H109.262C109.262 28.8387 109.193 28.9813 109.072 29.0827L109.236 29.278ZM109.517 28.6209H109.772C109.772 28.2747 109.655 27.9769 109.398 27.7664L109.236 27.9639L109.075 28.1614C109.192 28.2571 109.262 28.3973 109.262 28.6209H109.517ZM109.236 27.9639L109.4 27.7683C109.152 27.5609 108.809 27.4791 108.414 27.4791V27.7343V27.9894C108.75 27.9894 108.955 28.0608 109.073 28.1596L109.236 27.9639ZM108.414 27.7343V27.4791H107.074V27.7343V27.9894H108.414V27.7343ZM107.074 27.7343L107.263 27.9056L107.633 27.4974L107.444 27.326L107.255 27.1547L106.885 27.5629L107.074 27.7343ZM107.444 27.326H107.189V29.9095H107.444H107.699V27.326H107.444ZM116.747 31.3894L116.84 31.1518V31.1518L116.747 31.3894ZM115.982 30.9109L115.805 31.0949L115.807 31.0968L115.982 30.9109ZM115.478 30.1838L115.243 30.2834L115.243 30.2847L115.478 30.1838ZM115.478 28.353L115.712 28.454L115.713 28.4527L115.478 28.353ZM115.982 27.6258L116.157 27.8116L116.158 27.8098L115.982 27.6258ZM116.747 27.141L116.84 27.3786V27.3786L116.747 27.141ZM118.661 27.141L118.567 27.3782L118.568 27.3786L118.661 27.141ZM119.426 27.6258L119.249 27.8098L119.251 27.8116L119.426 27.6258ZM119.93 28.353L119.695 28.4527L119.696 28.454L119.93 28.353ZM119.93 30.1838L119.695 30.0841V30.0841L119.93 30.1838ZM119.426 30.9109L119.251 30.7251V30.7251L119.426 30.9109ZM118.661 31.3894L118.568 31.1517L118.567 31.1522L118.661 31.3894ZM118.329 30.7196L118.424 30.9565V30.9565L118.329 30.7196ZM118.827 30.3943L119.007 30.5747L119.01 30.572L118.827 30.3943ZM119.152 29.8967L118.917 29.7975L118.916 29.8001L119.152 29.8967ZM119.152 28.6401L118.915 28.7349L118.918 28.7412L119.152 28.6401ZM118.827 28.1425L118.644 28.3202L118.646 28.3229L118.827 28.1425ZM118.329 27.8108L118.424 27.5739V27.5739L118.329 27.8108ZM117.079 27.8108L116.984 27.5739L116.982 27.5747L117.079 27.8108ZM116.581 28.1425L116.401 27.9621V27.9621L116.581 28.1425ZM116.25 28.6401L116.015 28.5408L116.013 28.5435L116.25 28.6401ZM116.25 29.8903L116.013 29.9851L116.015 29.9896L116.25 29.8903ZM116.581 30.3943L116.398 30.572L116.401 30.5747L116.581 30.3943ZM117.079 30.7196L117.174 30.4827V30.4827L117.079 30.7196ZM117.71 31.5616V31.3064C117.39 31.3064 117.101 31.2538 116.84 31.1518L116.747 31.3894L116.654 31.627C116.98 31.7546 117.333 31.8167 117.71 31.8167V31.5616ZM116.747 31.3894L116.84 31.1518C116.575 31.0481 116.348 30.9056 116.157 30.7251L115.982 30.9109L115.807 31.0968C116.049 31.3245 116.332 31.501 116.654 31.627L116.747 31.3894ZM115.982 30.9109L116.158 30.727C115.966 30.5422 115.818 30.328 115.712 30.0828L115.478 30.1838L115.243 30.2847C115.376 30.5923 115.563 30.863 115.805 31.0949L115.982 30.9109ZM115.478 30.1838L115.713 30.0841C115.608 29.8376 115.554 29.5657 115.554 29.2652H115.299H115.044C115.044 29.6281 115.109 29.9685 115.243 30.2834L115.478 30.1838ZM115.299 29.2652H115.554C115.554 28.9646 115.608 28.6954 115.712 28.454L115.478 28.353L115.243 28.2521C115.109 28.5635 115.044 28.9023 115.044 29.2652H115.299ZM115.478 28.353L115.713 28.4527C115.818 28.2038 115.966 27.9909 116.157 27.8116L115.982 27.6258L115.807 27.44C115.564 27.669 115.375 27.9409 115.243 28.2534L115.478 28.353ZM115.982 27.6258L116.158 27.8098C116.35 27.6257 116.576 27.4819 116.84 27.3786L116.747 27.141L116.654 26.9034C116.331 27.0299 116.047 27.2092 115.805 27.4418L115.982 27.6258ZM116.747 27.141L116.84 27.3786C117.101 27.2765 117.388 27.224 117.704 27.224V26.9688V26.7137C117.331 26.7137 116.98 26.776 116.654 26.9034L116.747 27.141ZM117.704 26.9688V27.224C118.024 27.224 118.311 27.2766 118.567 27.3782L118.661 27.141L118.755 26.9039C118.432 26.7758 118.081 26.7137 117.704 26.7137V26.9688ZM118.661 27.141L118.568 27.3786C118.832 27.4819 119.058 27.6257 119.249 27.8098L119.426 27.6258L119.603 27.4418C119.361 27.2092 119.077 27.0299 118.754 26.9034L118.661 27.141ZM119.426 27.6258L119.251 27.8116C119.442 27.9909 119.59 28.2038 119.695 28.4527L119.93 28.353L120.165 28.2534C120.033 27.9409 119.844 27.669 119.601 27.44L119.426 27.6258ZM119.93 28.353L119.696 28.454C119.8 28.6954 119.854 28.9646 119.854 29.2652H120.109H120.364C120.364 28.9023 120.299 28.5635 120.165 28.2521L119.93 28.353ZM120.109 29.2652H119.854C119.854 29.5657 119.8 29.8376 119.695 30.0841L119.93 30.1838L120.165 30.2834C120.299 29.9685 120.364 29.6281 120.364 29.2652H120.109ZM119.93 30.1838L119.695 30.0841C119.59 30.333 119.442 30.5458 119.251 30.7251L119.426 30.9109L119.601 31.0968C119.844 30.8678 120.033 30.5959 120.165 30.2834L119.93 30.1838ZM119.426 30.9109L119.251 30.7251C119.06 30.9056 118.833 31.0481 118.568 31.1518L118.661 31.3894L118.754 31.627C119.076 31.501 119.359 31.3245 119.601 31.0968L119.426 30.9109ZM118.661 31.3894L118.567 31.1522C118.31 31.2539 118.026 31.3064 117.71 31.3064V31.5616V31.8167C118.084 31.8167 118.433 31.7544 118.755 31.6265L118.661 31.3894ZM117.704 30.8344V31.0896C117.959 31.0896 118.2 31.0462 118.424 30.9565L118.329 30.7196L118.234 30.4827C118.076 30.5461 117.9 30.5792 117.704 30.5792V30.8344ZM118.329 30.7196L118.424 30.9565C118.646 30.8676 118.841 30.7404 119.007 30.5747L118.827 30.3943L118.646 30.2138C118.531 30.3288 118.395 30.4185 118.234 30.4827L118.329 30.7196ZM118.827 30.3943L119.01 30.572C119.173 30.4039 119.299 30.2105 119.388 29.9933L119.152 29.8967L118.916 29.8001C118.852 29.9571 118.761 30.0954 118.644 30.2165L118.827 30.3943ZM119.152 29.8967L119.387 29.996C119.482 29.77 119.528 29.5253 119.528 29.2652H119.273H119.018C119.018 29.4644 118.983 29.6407 118.917 29.7975L119.152 29.8967ZM119.273 29.2652H119.528C119.528 29.0052 119.482 28.7618 119.386 28.5389L119.152 28.6401L118.918 28.7412C118.983 28.8926 119.018 29.0659 119.018 29.2652H119.273ZM119.152 28.6401L119.389 28.5453C119.3 28.3231 119.173 28.1278 119.007 27.9621L118.827 28.1425L118.646 28.3229C118.761 28.4379 118.851 28.5743 118.915 28.7348L119.152 28.6401ZM118.827 28.1425L119.01 27.9648C118.844 27.7939 118.648 27.6635 118.424 27.5739L118.329 27.8108L118.234 28.0477C118.393 28.1113 118.529 28.202 118.644 28.3202L118.827 28.1425ZM118.329 27.8108L118.424 27.5739C118.2 27.4842 117.959 27.4408 117.704 27.4408V27.696V27.9512C117.9 27.9512 118.076 27.9843 118.234 28.0477L118.329 27.8108ZM117.704 27.696V27.4408C117.449 27.4408 117.208 27.4842 116.984 27.5739L117.079 27.8108L117.174 28.0477C117.332 27.9843 117.508 27.9512 117.704 27.9512V27.696ZM117.079 27.8108L116.982 27.5747C116.763 27.6642 116.569 27.7938 116.401 27.9621L116.581 28.1425L116.762 28.3229C116.883 28.202 117.02 28.1105 117.175 28.047L117.079 27.8108ZM116.581 28.1425L116.401 27.9621C116.236 28.1268 116.108 28.3206 116.015 28.5408L116.25 28.6401L116.485 28.7393C116.553 28.5768 116.646 28.4389 116.762 28.3229L116.581 28.1425ZM116.25 28.6401L116.013 28.5435C115.923 28.7651 115.88 29.0069 115.88 29.2652H116.135H116.39C116.39 29.0642 116.423 28.8892 116.486 28.7367L116.25 28.6401ZM116.135 29.2652H115.88C115.88 29.52 115.923 29.7609 116.013 29.9851L116.25 29.8903L116.487 29.7956C116.423 29.637 116.39 29.4612 116.39 29.2652H116.135ZM116.25 29.8903L116.015 29.9896C116.107 30.2092 116.235 30.404 116.398 30.572L116.581 30.3943L116.764 30.2165C116.647 30.0954 116.554 29.9542 116.485 29.7911L116.25 29.8903ZM116.581 30.3943L116.401 30.5747C116.567 30.7404 116.762 30.8676 116.984 30.9565L117.079 30.7196L117.174 30.4827C117.013 30.4185 116.877 30.3288 116.762 30.2138L116.581 30.3943ZM117.079 30.7196L116.984 30.9565C117.208 31.0462 117.449 31.0896 117.704 31.0896V30.8344V30.5792C117.508 30.5792 117.332 30.5461 117.174 30.4827L117.079 30.7196ZM125.804 31.0449L125.623 31.2253L125.625 31.2264L125.804 31.0449ZM125.287 27.0326V26.7774H125.032V27.0326H125.287ZM126.116 27.0326H126.372V26.7774H126.116V27.0326ZM126.41 30.5218L126.224 30.6965L126.226 30.6985L126.41 30.5218ZM128.087 30.5218L127.901 30.3472V30.3472L128.087 30.5218ZM128.381 27.0326V26.7774H128.126V27.0326H128.381ZM129.197 27.0326H129.453V26.7774H129.197V27.0326ZM128.674 31.0449L128.495 30.8634L128.494 30.8645L128.674 31.0449ZM127.245 31.5616V31.3064C126.683 31.3064 126.273 31.1496 125.983 30.8634L125.804 31.0449L125.625 31.2264C126.032 31.6292 126.584 31.8167 127.245 31.8167V31.5616ZM125.804 31.0449L125.984 30.8645C125.702 30.5822 125.542 30.1587 125.542 29.5522H125.287H125.032C125.032 30.2471 125.217 30.8187 125.623 31.2253L125.804 31.0449ZM125.287 29.5522H125.542V27.0326H125.287H125.032V29.5522H125.287ZM125.287 27.0326V27.2878H126.116V27.0326V26.7774H125.287V27.0326ZM126.116 27.0326H125.861V29.5204H126.116H126.372V27.0326H126.116ZM126.116 29.5204H125.861C125.861 30.007 125.963 30.4192 126.224 30.6965L126.41 30.5218L126.596 30.3472C126.465 30.2078 126.372 29.9522 126.372 29.5204H126.116ZM126.41 30.5218L126.226 30.6985C126.485 30.969 126.839 31.0896 127.252 31.0896V30.8344V30.5792C126.941 30.5792 126.734 30.4914 126.594 30.3452L126.41 30.5218ZM127.252 30.8344V31.0896C127.664 31.0896 128.018 30.9691 128.274 30.6965L128.087 30.5218L127.901 30.3472C127.766 30.4913 127.563 30.5792 127.252 30.5792V30.8344ZM128.087 30.5218L128.274 30.6965C128.534 30.4192 128.636 30.007 128.636 29.5204H128.381H128.126C128.126 29.9522 128.032 30.2078 127.901 30.3472L128.087 30.5218ZM128.381 29.5204H128.636V27.0326H128.381H128.126V29.5204H128.381ZM128.381 27.0326V27.2878H129.197V27.0326V26.7774H128.381V27.0326ZM129.197 27.0326H128.942V29.5522H129.197H129.453V27.0326H129.197ZM129.197 29.5522H128.942C128.942 30.1578 128.781 30.581 128.495 30.8634L128.674 31.0449L128.854 31.2264C129.265 30.8199 129.453 30.248 129.453 29.5522H129.197ZM128.674 31.0449L128.494 30.8645C128.209 31.1498 127.804 31.3064 127.245 31.3064V31.5616V31.8167C127.903 31.8167 128.451 31.6289 128.855 31.2253L128.674 31.0449ZM134.696 31.4978H134.441V31.753H134.696V31.4978ZM134.696 27.0326V26.7774H134.441V27.0326H134.696ZM137.548 27.224L137.442 27.4562L137.443 27.4568L137.548 27.224ZM138.205 27.7725L138.419 27.6346V27.6346L138.205 27.7725ZM138.205 29.4693L138.419 29.6073V29.6073L138.205 29.4693ZM137.548 30.0179L137.443 29.785L137.442 29.7856L137.548 30.0179ZM135.156 30.2093L134.971 30.0335L134.561 30.4644H135.156V30.2093ZM135.526 29.8202H135.781V29.1815L135.341 29.6443L135.526 29.8202ZM135.526 31.4978V31.753H135.781V31.4978H135.526ZM135.526 29.9095L135.338 30.0823L135.781 30.5633V29.9095H135.526ZM135.156 29.5076V29.2524H134.574L134.968 29.6804L135.156 29.5076ZM137.318 29.278L137.482 29.4736L137.482 29.4732L137.318 29.278ZM137.318 27.9639L137.154 28.1596L137.157 28.1614L137.318 27.9639ZM135.156 27.7343L134.967 27.5629L134.58 27.9894H135.156V27.7343ZM135.526 27.326H135.781V26.6645L135.337 27.1547L135.526 27.326ZM134.696 31.4978H134.952V27.0326H134.696H134.441V31.4978H134.696ZM134.696 27.0326V27.2878H136.533V27.0326V26.7774H134.696V27.0326ZM136.533 27.0326V27.2878C136.902 27.2878 137.203 27.3474 137.442 27.4562L137.548 27.224L137.653 26.9917C137.332 26.8454 136.955 26.7774 136.533 26.7774V27.0326ZM137.548 27.224L137.443 27.4568C137.688 27.5663 137.867 27.7183 137.99 27.9105L138.205 27.7725L138.419 27.6346C138.237 27.3505 137.977 27.1368 137.652 26.9911L137.548 27.224ZM138.205 27.7725L137.99 27.9105C138.113 28.1014 138.179 28.3346 138.179 28.6209H138.434H138.69C138.69 28.2524 138.603 27.92 138.419 27.6346L138.205 27.7725ZM138.434 28.6209H138.179C138.179 28.9073 138.113 29.1405 137.99 29.3313L138.205 29.4693L138.419 29.6073C138.603 29.3219 138.69 28.9895 138.69 28.6209H138.434ZM138.205 29.4693L137.99 29.3313C137.867 29.5236 137.688 29.6755 137.443 29.785L137.548 30.0179L137.652 30.2508C137.977 30.1051 138.237 29.8914 138.419 29.6073L138.205 29.4693ZM137.548 30.0179L137.442 29.7856C137.203 29.8945 136.902 29.9541 136.533 29.9541V30.2093V30.4644C136.955 30.4644 137.332 30.3965 137.653 30.2502L137.548 30.0179ZM136.533 30.2093V29.9541H135.156V30.2093V30.4644H136.533V30.2093ZM135.156 30.2093L135.341 30.3851L135.711 29.996L135.526 29.8202L135.341 29.6443L134.971 30.0335L135.156 30.2093ZM135.526 29.8202H135.27V31.4978H135.526H135.781V29.8202H135.526ZM135.526 31.4978V31.2426H134.696V31.4978V31.753H135.526V31.4978ZM135.526 29.9095L135.713 29.7366L135.343 29.3348L135.156 29.5076L134.968 29.6804L135.338 30.0823L135.526 29.9095ZM135.156 29.5076V29.7628H136.495V29.5076V29.2524H135.156V29.5076ZM136.495 29.5076V29.7628C136.89 29.7628 137.234 29.681 137.482 29.4736L137.318 29.278L137.154 29.0823C137.036 29.1811 136.832 29.2524 136.495 29.2524V29.5076ZM137.318 29.278L137.482 29.4732C137.736 29.2599 137.854 28.9645 137.854 28.6209H137.599H137.344C137.344 28.8387 137.274 28.9813 137.154 29.0827L137.318 29.278ZM137.599 28.6209H137.854C137.854 28.2747 137.737 27.9769 137.48 27.7664L137.318 27.9639L137.157 28.1614C137.274 28.2571 137.344 28.3973 137.344 28.6209H137.599ZM137.318 27.9639L137.482 27.7683C137.234 27.5609 136.89 27.4791 136.495 27.4791V27.7343V27.9894C136.832 27.9894 137.036 28.0608 137.154 28.1596L137.318 27.9639ZM136.495 27.7343V27.4791H135.156V27.7343V27.9894H136.495V27.7343ZM135.156 27.7343L135.345 27.9056L135.715 27.4974L135.526 27.326L135.337 27.1547L134.967 27.5629L135.156 27.7343ZM135.526 27.326H135.27V29.9095H135.526H135.781V27.326H135.526Z" fill="#101010" mask="url(#path-6-outside-2_64_2008)"/>
</svg>
