<svg width="24" height="24" viewBox="0 0 24 24" fill="none" xmlns="http://www.w3.org/2000/svg">
<path fill-rule="evenodd" clip-rule="evenodd" d="M16.9948 15.8261L15.8259 16.9935L15.5263 16.6933C15.7398 16.5191 15.9443 16.3342 16.1391 16.1392C16.3337 15.9443 16.5185 15.7398 16.6927 15.5265L16.9942 15.8265L16.9948 15.8261ZM20.3663 20.3666C20.521 20.2118 20.6079 20.0018 20.6079 19.7829C20.6079 19.564 20.521 19.3541 20.3663 19.1992L17.6239 16.4564L16.4569 17.6238L19.1991 20.3666C19.3539 20.5213 19.5638 20.6081 19.7827 20.6081C20.0015 20.6081 20.2114 20.5213 20.3663 20.3666ZM5.45619 15.5087C6.45037 16.5028 7.717 17.1798 9.09592 17.4541C10.4748 17.7283 11.9041 17.5875 13.203 17.0495C14.5019 16.5114 15.6121 15.6003 16.3932 14.4313C17.1743 13.2623 17.5912 11.8879 17.5912 10.482C17.5912 9.07608 17.1743 7.70173 16.3932 6.53273C15.6121 5.36374 14.5019 4.45261 13.203 3.91456C11.9041 3.37651 10.4748 3.23571 9.09592 3.50996C7.717 3.7842 6.45037 4.46119 5.45619 5.4553C4.12457 6.78928 3.37667 8.59714 3.37667 10.482C3.37667 12.3669 4.12457 14.1747 5.45619 15.5087ZM16.1397 4.825C14.6377 3.33266 12.6053 2.49659 10.4879 2.50001C8.37058 2.50343 6.34092 3.34605 4.84371 4.84324C3.34649 6.34042 2.50383 8.37007 2.50038 10.4874C2.49692 12.6048 3.33295 14.6372 4.82526 16.1392C6.11535 17.4282 7.80674 18.2383 9.61973 18.4354C11.4327 18.6325 13.2587 18.205 14.7957 17.2234L18.5683 20.9969C18.8903 21.319 19.327 21.4999 19.7824 21.5C20.2378 21.5001 20.6746 21.3192 20.9967 20.9972C21.3187 20.6753 21.4997 20.2385 21.4997 19.7831C21.4998 19.3277 21.3189 18.891 20.997 18.5689L17.2243 14.7952C18.2053 13.258 18.6326 11.4322 18.4354 9.61936C18.2381 7.80653 17.4283 6.11524 16.1397 4.825Z" fill="#797979"/>
</svg>
