<svg width="16" height="16" viewBox="0 0 16 16" fill="none" xmlns="http://www.w3.org/2000/svg">
<path d="M8.00004 11.8333C7.24188 11.8333 6.50074 11.6085 5.87035 11.1873C5.23997 10.7661 4.74864 10.1674 4.4585 9.46693C4.16837 8.76648 4.09245 7.99573 4.24036 7.25213C4.38827 6.50854 4.75336 5.8255 5.28946 5.2894C5.82557 4.7533 6.5086 4.38821 7.25219 4.2403C7.99579 4.09239 8.76654 4.16831 9.46699 4.45844C10.1674 4.74858 10.7661 5.23991 11.1873 5.87029C11.6086 6.50068 11.8334 7.24182 11.8334 7.99998C11.8316 9.0161 11.4272 9.9901 10.7087 10.7086C9.99016 11.4271 9.01616 11.8315 8.00004 11.8333ZM8.00004 5.16665C7.43966 5.16665 6.89186 5.33282 6.42592 5.64415C5.95999 5.95548 5.59683 6.39799 5.38238 6.91571C5.16793 7.43343 5.11182 8.00312 5.22115 8.55274C5.33047 9.10235 5.60032 9.6072 5.99657 10.0034C6.39282 10.3997 6.89767 10.6695 7.44728 10.7789C7.9969 10.8882 8.56659 10.8321 9.08431 10.6176C9.60203 10.4032 10.0445 10.04 10.3559 9.57409C10.6672 9.10816 10.8334 8.56036 10.8334 7.99998C10.8316 7.24907 10.5325 6.52943 10.0016 5.99845C9.47059 5.46748 8.75095 5.16841 8.00004 5.16665ZM8.00004 3.33331C7.86797 3.33159 7.74179 3.27835 7.6484 3.18496C7.555 3.09156 7.50177 2.96538 7.50004 2.83331V1.83331C7.50004 1.7007 7.55272 1.57353 7.64649 1.47976C7.74026 1.38599 7.86743 1.33331 8.00004 1.33331C8.13265 1.33331 8.25983 1.38599 8.35359 1.47976C8.44736 1.57353 8.50004 1.7007 8.50004 1.83331V2.83331C8.49831 2.96538 8.44508 3.09156 8.35168 3.18496C8.25829 3.27835 8.13211 3.33159 8.00004 3.33331ZM8.00004 14.6666C7.86797 14.6649 7.74179 14.6117 7.6484 14.5183C7.555 14.4249 7.50177 14.2987 7.50004 14.1666V13.1666C7.50004 13.034 7.55272 12.9069 7.64649 12.8131C7.74026 12.7193 7.86743 12.6666 8.00004 12.6666C8.13265 12.6666 8.25983 12.7193 8.35359 12.8131C8.44736 12.9069 8.50004 13.034 8.50004 13.1666V14.1666C8.49831 14.2987 8.44508 14.4249 8.35168 14.5183C8.25829 14.6117 8.13211 14.6649 8.00004 14.6666ZM14.1667 8.49998H13.1667C13.0341 8.49998 12.9069 8.4473 12.8132 8.35353C12.7194 8.25976 12.6667 8.13259 12.6667 7.99998C12.6667 7.86737 12.7194 7.74019 12.8132 7.64643C12.9069 7.55266 13.0341 7.49998 13.1667 7.49998H14.1667C14.2993 7.49998 14.4265 7.55266 14.5203 7.64643C14.614 7.74019 14.6667 7.86737 14.6667 7.99998C14.6667 8.13259 14.614 8.25976 14.5203 8.35353C14.4265 8.4473 14.2993 8.49998 14.1667 8.49998ZM2.83337 8.49998H1.83337C1.70077 8.49998 1.57359 8.4473 1.47982 8.35353C1.38605 8.25976 1.33337 8.13259 1.33337 7.99998C1.33337 7.86737 1.38605 7.74019 1.47982 7.64643C1.57359 7.55266 1.70077 7.49998 1.83337 7.49998H2.83337C2.96598 7.49998 3.09316 7.55266 3.18693 7.64643C3.2807 7.74019 3.33337 7.86737 3.33337 7.99998C3.33337 8.13259 3.2807 8.25976 3.18693 8.35353C3.09316 8.4473 2.96598 8.49998 2.83337 8.49998ZM4.33337 4.83331C4.20475 4.82348 4.08509 4.76365 4.00004 4.66665L3.27337 3.99998C3.22566 3.95227 3.18781 3.89562 3.16199 3.83328C3.13617 3.77094 3.12288 3.70412 3.12288 3.63665C3.12288 3.56917 3.13617 3.50235 3.16199 3.44001C3.18781 3.37767 3.22566 3.32103 3.27337 3.27331C3.32109 3.2256 3.37773 3.18775 3.44007 3.16193C3.50241 3.13611 3.56923 3.12282 3.63671 3.12282C3.70418 3.12282 3.771 3.13611 3.83334 3.16193C3.89568 3.18775 3.95233 3.2256 4.00004 3.27331L4.66671 3.99998C4.7487 4.09165 4.79403 4.21032 4.79403 4.33331C4.79403 4.4563 4.7487 4.57498 4.66671 4.66665C4.58166 4.76365 4.462 4.82348 4.33337 4.83331ZM12.3734 12.8733C12.3077 12.8736 12.2426 12.8608 12.1819 12.8356C12.1212 12.8104 12.0662 12.7734 12.02 12.7266L11.3334 12C11.2888 11.9067 11.2743 11.8019 11.2918 11.6999C11.3092 11.598 11.3579 11.5041 11.431 11.4309C11.5041 11.3578 11.5981 11.3092 11.7 11.2917C11.8019 11.2742 11.9067 11.2888 12 11.3333L12.7267 12C12.8203 12.0937 12.8729 12.2208 12.8729 12.3533C12.8729 12.4858 12.8203 12.6129 12.7267 12.7066C12.6823 12.757 12.628 12.7978 12.5672 12.8264C12.5065 12.8551 12.4405 12.8711 12.3734 12.8733ZM11.6667 4.83331C11.5381 4.82348 11.4184 4.76365 11.3334 4.66665C11.2514 4.57498 11.2061 4.4563 11.2061 4.33331C11.2061 4.21032 11.2514 4.09165 11.3334 3.99998L12 3.27331C12.0964 3.17695 12.2271 3.12282 12.3634 3.12282C12.4997 3.12282 12.6303 3.17695 12.7267 3.27331C12.8231 3.36967 12.8772 3.50037 12.8772 3.63665C12.8772 3.77292 12.8231 3.90362 12.7267 3.99998L12 4.66665C11.915 4.76365 11.7953 4.82348 11.6667 4.83331ZM3.62671 12.8733C3.56101 12.8736 3.49592 12.8608 3.43525 12.8356C3.37457 12.8104 3.31954 12.7734 3.27337 12.7266C3.17974 12.6329 3.12715 12.5058 3.12715 12.3733C3.12715 12.2408 3.17974 12.1137 3.27337 12.02L4.00004 11.3333C4.09334 11.2888 4.19817 11.2742 4.30007 11.2917C4.40198 11.3092 4.49596 11.3578 4.56908 11.4309C4.64219 11.5041 4.69084 11.598 4.70832 11.6999C4.72581 11.8019 4.71127 11.9067 4.66671 12L4.00004 12.7266C3.95155 12.7759 3.89327 12.8144 3.82895 12.8396C3.76464 12.8649 3.69574 12.8764 3.62671 12.8733Z" fill="black"/>
</svg>
