<svg width="24" height="24" viewBox="0 0 24 24" fill="none" xmlns="http://www.w3.org/2000/svg">
<path d="M11.9962 11.4803C10.5417 11.4803 9.35001 10.2886 9.35001 8.83404C9.35001 7.37949 10.5417 6.18781 11.9962 6.18781C13.4508 6.18781 14.6425 7.37949 14.6425 8.83404C14.6425 10.2886 13.4508 11.4803 11.9962 11.4803ZM11.9962 7.06404C11.0149 7.06404 10.2262 7.85265 10.2262 8.83404C10.2262 9.81542 11.0149 10.604 11.9962 10.604C12.9776 10.604 13.7662 9.81542 13.7662 8.83404C13.7662 7.85265 12.9776 7.06404 11.9962 7.06404Z" fill="#797979"/>
<path d="M12.1008 17.8121C10.0854 17.8121 8 17.8121 8 15.5515C8 13.1856 9.87514 11.1878 12.1008 11.1878C14.3264 11.1878 16.2016 13.1856 16.2016 15.5515C16.2016 17.8121 14.1161 17.8121 12.1008 17.8121ZM12.1008 12.064C10.3834 12.064 8.87624 13.6938 8.87624 15.5515C8.87624 16.673 9.47208 16.9359 12.1008 16.9359C14.7295 16.9359 15.3253 16.673 15.3253 15.5515C15.3253 13.6938 13.8182 12.064 12.1008 12.064Z" fill="#797979"/>
<path d="M17.0907 12.1199C16.0393 12.1199 15.1805 11.2612 15.1805 10.2098C15.1805 9.15827 16.0393 8.29956 17.0907 8.29956C18.1422 8.29956 19.0009 9.15827 19.0009 10.2098C19.0009 11.2612 18.1422 12.1199 17.0907 12.1199ZM17.0907 9.1758C16.5124 9.1758 16.0568 9.63144 16.0568 10.2098C16.0568 10.7881 16.5124 11.2437 17.0907 11.2437C17.6691 11.2437 18.1247 10.7881 18.1247 10.2098C18.1247 9.63144 17.6691 9.1758 17.0907 9.1758Z" fill="#797979"/>
<path d="M6.89159 12.1199C5.84011 12.1199 4.9814 11.2612 4.9814 10.2098C4.9814 9.15827 5.84011 8.29956 6.89159 8.29956C7.94308 8.29956 8.80179 9.15827 8.80179 10.2098C8.80179 11.2612 7.94308 12.1199 6.89159 12.1199ZM6.89159 9.1758C6.31328 9.1758 5.85764 9.63144 5.85764 10.2098C5.85764 10.7881 6.31328 11.2437 6.89159 11.2437C7.46991 11.2437 7.92555 10.7881 7.92555 10.2098C7.92555 9.63144 7.46991 9.1758 6.89159 9.1758Z" fill="#797979"/>
<path d="M17.1083 15.9928C16.4074 15.9928 15.9342 15.9577 15.5837 15.9052L15.2157 15.8351V15.3969C15.2157 14.696 14.9879 13.995 14.5673 13.3641L14.4271 13.1538L14.5497 12.926C15.058 11.9095 16.0569 11.2611 17.0908 11.2611C18.6505 11.2611 19.9824 12.6631 19.9999 14.3279C19.9999 15.9928 18.4577 15.9928 17.1083 15.9928ZM16.0744 15.0815C16.3373 15.099 16.6702 15.1165 17.1083 15.1165C18.8783 15.1165 19.1237 14.9413 19.1237 14.3279C19.1062 13.1713 18.1598 12.1373 17.0908 12.1373C16.4424 12.1373 15.829 12.5054 15.4435 13.1012C15.8115 13.7146 16.0218 14.398 16.0744 15.0815Z" fill="#797979"/>
<path d="M6.89156 15.9927C5.54216 15.9927 3.99998 15.9927 3.99998 14.3279C3.99998 12.663 5.33186 11.261 6.89156 11.261C7.92552 11.261 8.94195 11.9095 9.43265 12.9259L9.55532 13.1537L9.41512 13.364C9.1172 13.8021 8.76671 14.5031 8.78423 15.3794V15.8175L8.41621 15.8876C8.06572 15.9577 7.59255 15.9927 6.89156 15.9927ZM6.89156 12.1373C5.82255 12.1373 4.87622 13.1537 4.87622 14.3279C4.87622 14.9412 5.12157 15.1165 6.89156 15.1165C7.32968 15.1165 7.64512 15.099 7.908 15.0814C7.94305 14.398 8.15334 13.732 8.53889 13.1011C8.15334 12.5053 7.53998 12.1373 6.89156 12.1373Z" fill="#797979"/>
</svg>
